<?xml version="1.0" encoding="UTF-8"?>
<svg width="36px" height="36px" viewBox="0 0 36 36" version="1.1" xmlns="http://www.w3.org/2000/svg" xmlns:xlink="http://www.w3.org/1999/xlink">
    <!-- Generator: Sketch 55.2 (78181) - https://sketchapp.com -->
    <title>002-emoticon-with-happy-face</title>
    <desc>Created with Sketch.</desc>
    <g id="Page-1" stroke="none" stroke-width="1" fill="none" fill-rule="evenodd">
        <g id="002-emoticon-with-happy-face" fill="#000000" fill-rule="nonzero">
            <path d="M24.3,16.2 C25.74,16.2 27,14.94 27,13.5 C27,12.06 25.74,10.8 24.3,10.8 C22.86,10.8 21.6,12.06 21.6,13.5 C21.6,14.94 22.86,16.2 24.3,16.2 Z M11.7,16.2 C13.14,16.2 14.4,14.94 14.4,13.5 C14.4,12.06 13.14,10.8 11.7,10.8 C10.26,10.8 9,12.06 9,13.5 C9,14.94 10.26,16.2 11.7,16.2 Z M18,28.8 C22.68,28.8 26.64,25.74 28.26,21.6 L7.74,21.6 C9.36,25.74 13.32,28.8 18,28.8 Z M18,0 C8.1,0 0,8.1 0,18 C0,27.9 8.1,36 18,36 C27.9,36 36,27.9 36,18 C36,8.1 27.9,0 18,0 Z M18,32.4 C10.08,32.4 3.6,25.92 3.6,18 C3.6,10.08 10.08,3.6 18,3.6 C25.92,3.6 32.4,10.08 32.4,18 C32.4,25.92 25.92,32.4 18,32.4 Z" id="Shape"></path>
        </g>
    </g>
</svg>