<?xml version="1.0" encoding="UTF-8"?>
<svg width="59px" height="36px" viewBox="0 0 59 36" version="1.1" xmlns="http://www.w3.org/2000/svg" xmlns:xlink="http://www.w3.org/1999/xlink">
    <!-- Generator: Sketch 55.2 (78181) - https://sketchapp.com -->
    <title>003-font</title>
    <desc>Created with Sketch.</desc>
    <g id="Page-1" stroke="none" stroke-width="1" fill="none" fill-rule="evenodd">
        <g id="003-font" fill-rule="nonzero">
            <polygon id="Path" fill="#333E48" points="58.3047429 1.93988571 58.3047429 0.03 50.0924571 0.03 50.0924571 1.93988571 53.2436571 1.93988571 53.2436571 34.0789714 50.0924571 34.0789714 50.0924571 35.9888571 58.3047429 35.9888571 58.3047429 34.0789714 55.1535429 34.0789714 55.1535429 1.93988571"></polygon>
            <g id="Group" transform="translate(0.000000, 3.942857)" fill="#1E252B">
                <path d="M0.354342857,24.2725714 L9.966,2.56714286 C10.6361143,1.0704 11.8568571,0.164057143 13.5118286,0.164057143 L13.8663429,0.164057143 C15.5202857,0.164057143 16.7024571,1.07022857 17.3718857,2.56714286 L26.9838857,24.2725714 C27.1808571,24.7059429 27.2993143,25.0997143 27.2993143,25.4938286 C27.2993143,27.1088571 26.0386286,28.4088 24.4234286,28.4088 C23.0053714,28.4088 22.0597714,27.5816571 21.5084571,26.3208 L19.6572,21.9879429 L7.52417143,21.9879429 L5.59388571,26.5181143 C5.08165714,27.6997714 4.05771429,28.4088 2.79702857,28.4088 C1.22074286,28.4088 0,27.1482857 0,25.5725143 C0,25.1391429 0.157371429,24.7059429 0.354342857,24.2725714 Z M17.4116571,16.6304571 L13.5903429,7.53068571 L9.76937143,16.6304571 L17.4116571,16.6304571 Z" id="Shape"></path>
                <path d="M30.1733143,22.1058857 L30.1733143,22.0270286 C30.1733143,17.4181714 33.6793714,15.2909143 38.6821714,15.2909143 C40.8096,15.2909143 42.3461143,15.6454286 43.8430286,16.1576571 L43.8430286,15.8031429 C43.8430286,13.3212 42.3065143,11.9427429 39.3126857,11.9427429 C37.6582286,11.9427429 36.3188571,12.1789714 35.1764571,12.5336571 C34.8221143,12.6517714 34.5855429,12.6910286 34.3093714,12.6910286 C32.9310857,12.6910286 31.8281143,11.6274857 31.8281143,10.2488571 C31.8281143,9.18514286 32.4975429,8.27914286 33.4428,7.92445714 C35.3336571,7.21542857 37.3824,6.82148571 40.1792571,6.82148571 C43.4485714,6.82148571 45.8124,7.68805714 47.3094857,9.18497143 C48.8850857,10.7605714 49.5941143,13.0849714 49.5941143,15.9212571 L49.5941143,25.5329143 C49.5941143,27.1482857 48.2941714,28.4086286 46.6789714,28.4086286 C44.9456571,28.4086286 43.8034286,27.1875429 43.8034286,25.9268571 L43.8034286,25.8874286 C42.3459429,27.5024571 40.3364571,28.566 37.4218286,28.566 C33.4428,28.5663429 30.1733143,26.2818857 30.1733143,22.1058857 Z M43.9213714,20.7270857 L43.9213714,19.6635429 C42.8972571,19.1909143 41.5578857,18.8756571 40.1004,18.8756571 C37.5396,18.8756571 35.9641714,19.8999429 35.9641714,21.7906286 L35.9641714,21.8694857 C35.9641714,23.4846857 37.3035429,24.4299429 39.2336571,24.4299429 C42.0305143,24.4301143 43.9213714,22.8939429 43.9213714,20.7270857 Z" id="Shape"></path>
            </g>
        </g>
    </g>
</svg>