<?xml version="1.0" encoding="UTF-8"?>
<svg width="36px" height="36px" viewBox="0 0 36 36" version="1.1" xmlns="http://www.w3.org/2000/svg" xmlns:xlink="http://www.w3.org/1999/xlink">
    <!-- Generator: Sketch 55.2 (78181) - https://sketchapp.com -->
    <title>001-qr-code</title>
    <desc>Created with Sketch.</desc>
    <g id="Page-1" stroke="none" stroke-width="1" fill="none" fill-rule="evenodd">
        <g id="001-qr-code" fill="#000000" fill-rule="nonzero">
            <path d="M0,35.999194 L16.3633433,35.999194 L16.3633433,19.6356716 L0,19.6356716 L0,35.999194 Z M3.27241791,22.9086269 L13.0905672,22.9086269 L13.0905672,32.7013433 L3.27241791,32.7013433 L3.27241791,22.9086269 Z" id="Shape"></path>
            <rect id="Rectangle" x="6.54528358" y="26.1810448" width="3.27259701" height="3.27304478"></rect>
            <rect id="Rectangle" x="26.1807761" y="32.7267761" width="3.27340299" height="3.27268657"></rect>
            <rect id="Rectangle" x="32.7261493" y="32.7267761" width="3.27331343" height="3.27268657"></rect>
            <polygon id="Path" points="32.7265075 22.9086269 29.4540896 22.9086269 29.4540896 19.6356716 19.6356716 19.6356716 19.6356716 35.999194 22.9086269 35.999194 22.9086269 26.1810448 26.1807761 26.1810448 26.1807761 29.4540896 35.999194 29.4540896 35.999194 19.6356716 35.999194 19.6356716 32.7265075 19.6356716"></polygon>
            <path d="M0,16.3637015 L16.3633433,16.3637015 L16.3633433,0 L0,0 L0,16.3637015 Z M3.27241791,3.27241791 L13.0905672,3.27241791 L13.0905672,13.0905672 L3.27241791,13.0905672 L3.27241791,3.27241791 Z" id="Shape"></path>
            <rect id="Rectangle" x="6.54528358" y="6.54528358" width="3.27259701" height="3.27286567"></rect>
            <path d="M19.6356716,0 L19.6356716,16.3637015 L35.9994627,16.3637015 L35.9994627,0 L19.6356716,0 Z M32.7265075,13.0905672 L22.9086269,13.0905672 L22.9086269,3.27241791 L32.7265075,3.27241791 L32.7265075,13.0905672 L32.7265075,13.0905672 Z" id="Shape"></path>
            <rect id="Rectangle" x="26.1807761" y="6.54528358" width="3.27340299" height="3.27286567"></rect>
        </g>
    </g>
</svg>